<svg width="32" height="32" viewBox="0 0 32 32" fill="none" xmlns="http://www.w3.org/2000/svg">
<path d="M10.667 10.6667V9.33333C10.667 7.91885 11.2289 6.56229 12.2291 5.5621C13.2293 4.5619 14.5858 4 16.0003 4C17.4148 4 18.7714 4.5619 19.7716 5.5621C20.7718 6.56229 21.3337 7.91885 21.3337 9.33333V10.6667" stroke="#0A0D12" stroke-width="2" stroke-linecap="round"/>
<path fill-rule="evenodd" clip-rule="evenodd" d="M4.78133 10.1143C4 10.8957 4 12.1517 4 14.6663V18.6663C4 23.6943 4 26.209 5.56267 27.7703C7.12533 29.3317 9.63867 29.333 14.6667 29.333H17.3333C22.3613 29.333 24.876 29.333 26.4373 27.7703C27.9987 26.2077 28 23.6943 28 18.6663V14.6663C28 12.1517 28 10.8957 27.2187 10.1143C26.4373 9.33301 25.1813 9.33301 22.6667 9.33301H9.33333C6.81867 9.33301 5.56267 9.33301 4.78133 10.1143ZM13.3333 15.9997C13.3333 15.6461 13.1929 15.3069 12.9428 15.0569C12.6928 14.8068 12.3536 14.6663 12 14.6663C11.6464 14.6663 11.3072 14.8068 11.0572 15.0569C10.8071 15.3069 10.6667 15.6461 10.6667 15.9997V18.6663C10.6667 19.02 10.8071 19.3591 11.0572 19.6091C11.3072 19.8592 11.6464 19.9997 12 19.9997C12.3536 19.9997 12.6928 19.8592 12.9428 19.6091C13.1929 19.3591 13.3333 19.02 13.3333 18.6663V15.9997ZM21.3333 15.9997C21.3333 15.6461 21.1929 15.3069 20.9428 15.0569C20.6928 14.8068 20.3536 14.6663 20 14.6663C19.6464 14.6663 19.3072 14.8068 19.0572 15.0569C18.8071 15.3069 18.6667 15.6461 18.6667 15.9997V18.6663C18.6667 19.02 18.8071 19.3591 19.0572 19.6091C19.3072 19.8592 19.6464 19.9997 20 19.9997C20.3536 19.9997 20.6928 19.8592 20.9428 19.6091C21.1929 19.3591 21.3333 19.02 21.3333 18.6663V15.9997Z" fill="#0A0D12"/>
</svg>
